HIERARCHY
ROOT Hips
{
	OFFSET -14.64140 90.27770 -84.91600
	CHANNELS 6 Xposition Yposition Zposition Zrotation Xrotation Yrotation
	JOINT Spine
	{
		OFFSET 0.00000 13.20850 -1.60436
		CHANNELS 3 Zrotation Xrotation Yrotation
		JOINT Spine1
		{
			OFFSET 0.00000 8.61716 0.00000
			CHANNELS 3 Zrotation Xrotation Yrotation
			JOINT Spine2
			{
				OFFSET 0.00000 8.61717 0.00000
				CHANNELS 3 Zrotation Xrotation Yrotation
				JOINT Spine3
				{
					OFFSET 0.00000 8.61717 0.00000
					CHANNELS 3 Zrotation Xrotation Yrotation
					JOINT Neck
					{
						OFFSET 0.00000 11.07920 1.10792
						CHANNELS 3 Zrotation Xrotation Yrotation
						JOINT Neck1
						{
							OFFSET 0.00000 7.08032 0.00000
							CHANNELS 3 Zrotation Xrotation Yrotation
							JOINT Head
							{
								OFFSET 0.00000 7.08031 0.00000
								CHANNELS 3 Zrotation Xrotation Yrotation
								End site
								{
									OFFSET 0.00000 0.00000 0.00000
								}
							}
						}
					}
					JOINT RightShoulder
					{
						OFFSET -0.01000 7.91373 5.19711
						CHANNELS 3 Zrotation Xrotation Yrotation
						JOINT RightArm
						{
							OFFSET -18.41580 0.00000 0.00000
							CHANNELS 3 Zrotation Xrotation Yrotation
							JOINT RightForeArm
							{
								OFFSET -29.11090 0.00000 0.00000
								CHANNELS 3 Zrotation Xrotation Yrotation
								JOINT RightHand
								{
									OFFSET -24.65040 0.00000 0.00000
									CHANNELS 3 Zrotation Xrotation Yrotation
									JOINT RightHandThumb1
									{
										OFFSET -5.35114 -0.85590 3.97906
										CHANNELS 3 Zrotation Xrotation Yrotation
										JOINT RightHandThumb2
										{
											OFFSET -4.52789 0.00000 0.00000
											CHANNELS 3 Zrotation Xrotation Yrotation
											JOINT RightHandThumb3
											{
												OFFSET -2.46976 0.00000 0.00000
												CHANNELS 3 Zrotation Xrotation Yrotation
												End site
												{
													OFFSET 0.00000 0.00000 0.00000
												}
											}
										}
									}
									JOINT RightHandIndex1
									{
										OFFSET -14.26970 0.00000 2.88139
										CHANNELS 3 Zrotation Xrotation Yrotation
										JOINT RightHandIndex2
										{
											OFFSET -5.48836 0.00000 0.00000
											CHANNELS 3 Zrotation Xrotation Yrotation
											JOINT RightHandIndex3
											{
												OFFSET -3.01859 0.00000 0.00000
												CHANNELS 3 Zrotation Xrotation Yrotation
												End site
												{
													OFFSET 0.00000 0.00000 0.00000
												}
											}
										}
									}
									JOINT RightHandMiddle1
									{
										OFFSET -14.26970 0.00000 -0.09147
										CHANNELS 3 Zrotation Xrotation Yrotation
										JOINT RightHandMiddle2
										{
											OFFSET -6.17441 0.00000 0.00000
											CHANNELS 3 Zrotation Xrotation Yrotation
											JOINT RightHandMiddle3
											{
												OFFSET -3.56743 0.00000 0.00000
												CHANNELS 3 Zrotation Xrotation Yrotation
												End site
												{
													OFFSET 0.00000 0.00000 0.00000
												}
											}
										}
									}
									JOINT RightHandRing1
									{
										OFFSET -12.69180 0.00000 -3.06433
										CHANNELS 3 Zrotation Xrotation Yrotation
										JOINT RightHandRing2
										{
											OFFSET -5.62556 0.00000 0.00000
											CHANNELS 3 Zrotation Xrotation Yrotation
											JOINT RightHandRing3
											{
												OFFSET -3.56744 0.00000 0.00000
												CHANNELS 3 Zrotation Xrotation Yrotation
												End site
												{
													OFFSET 0.00000 0.00000 0.00000
												}
											}
										}
									}
									JOINT RightHandPinky1
									{
										OFFSET -11.11390 0.00000 -6.03719
										CHANNELS 3 Zrotation Xrotation Yrotation
										JOINT RightHandPinky2
										{
											OFFSET -4.52789 0.00000 0.00000
											CHANNELS 3 Zrotation Xrotation Yrotation
											JOINT RightHandPinky3
											{
												OFFSET -2.46976 0.00000 0.00000
												CHANNELS 3 Zrotation Xrotation Yrotation
												End site
												{
													OFFSET 0.00000 0.00000 0.00000
												}
											}
										}
									}
								}
							}
						}
					}
					JOINT LeftShoulder
					{
						OFFSET 0.01000 7.91373 5.19711
						CHANNELS 3 Zrotation Xrotation Yrotation
						JOINT LeftArm
						{
							OFFSET 18.41580 0.00000 0.00000
							CHANNELS 3 Zrotation Xrotation Yrotation
							JOINT LeftForeArm
							{
								OFFSET 29.11090 0.00000 0.00000
								CHANNELS 3 Zrotation Xrotation Yrotation
								JOINT LeftHand
								{
									OFFSET 24.65040 0.00000 0.00000
									CHANNELS 3 Zrotation Xrotation Yrotation
									JOINT LeftHandThumb1
									{
										OFFSET 5.35114 -0.85590 3.97906
										CHANNELS 3 Zrotation Xrotation Yrotation
										JOINT LeftHandThumb2
										{
											OFFSET 4.52789 0.00000 0.00000
											CHANNELS 3 Zrotation Xrotation Yrotation
											JOINT LeftHandThumb3
											{
												OFFSET 2.46977 0.00000 0.00000
												CHANNELS 3 Zrotation Xrotation Yrotation
												End site
												{
													OFFSET 0.00000 0.00000 0.00000
												}
											}
										}
									}
									JOINT LeftHandIndex1
									{
										OFFSET 14.26970 0.00000 2.88139
										CHANNELS 3 Zrotation Xrotation Yrotation
										JOINT LeftHandIndex2
										{
											OFFSET 5.48836 0.00000 0.00000
											CHANNELS 3 Zrotation Xrotation Yrotation
											JOINT LeftHandIndex3
											{
												OFFSET 3.01859 0.00000 0.00000
												CHANNELS 3 Zrotation Xrotation Yrotation
												End site
												{
													OFFSET 0.00000 0.00000 0.00000
												}
											}
										}
									}
									JOINT LeftHandMiddle1
									{
										OFFSET 14.26970 0.00000 -0.09147
										CHANNELS 3 Zrotation Xrotation Yrotation
										JOINT LeftHandMiddle2
										{
											OFFSET 6.17440 0.00000 0.00000
											CHANNELS 3 Zrotation Xrotation Yrotation
											JOINT LeftHandMiddle3
											{
												OFFSET 3.56744 0.00000 0.00000
												CHANNELS 3 Zrotation Xrotation Yrotation
												End site
												{
													OFFSET 0.00000 0.00000 0.00000
												}
											}
										}
									}
									JOINT LeftHandRing1
									{
										OFFSET 12.69180 0.00000 -3.06433
										CHANNELS 3 Zrotation Xrotation Yrotation
										JOINT LeftHandRing2
										{
											OFFSET 5.62556 0.00000 0.00000
											CHANNELS 3 Zrotation Xrotation Yrotation
											JOINT LeftHandRing3
											{
												OFFSET 3.56744 0.00000 0.00000
												CHANNELS 3 Zrotation Xrotation Yrotation
												End site
												{
													OFFSET 0.00000 0.00000 0.00000
												}
											}
										}
									}
									JOINT LeftHandPinky1
									{
										OFFSET 11.11390 0.00000 -6.03719
										CHANNELS 3 Zrotation Xrotation Yrotation
										JOINT LeftHandPinky2
										{
											OFFSET 4.52789 0.00000 0.00000
											CHANNELS 3 Zrotation Xrotation Yrotation
											JOINT LeftHandPinky3
											{
												OFFSET 2.46976 0.00000 0.00000
												CHANNELS 3 Zrotation Xrotation Yrotation
												End site
												{
													OFFSET 0.00000 0.00000 0.00000
												}
											}
										}
									}
								}
							}
						}
					}
					JOINT pCube4
					{
						OFFSET 0.00000 10.91090 1.10792
						CHANNELS 3 Zrotation Xrotation Yrotation
						End site
						{
							OFFSET 0.00000 0.00000 0.00000
						}
					}
				}
			}
		}
	}
	JOINT RightUpLeg
	{
		OFFSET -9.98441 0.00000 0.00000
		CHANNELS 3 Zrotation Xrotation Yrotation
		JOINT RightLeg
		{
			OFFSET 0.00000 -42.11790 0.00000
			CHANNELS 3 Zrotation Xrotation Yrotation
			JOINT RightFoot
			{
				OFFSET 0.00000 -45.00020 -0.00001
				CHANNELS 3 Zrotation Xrotation Yrotation
				JOINT RightForeFoot
				{
					OFFSET 0.00000 -3.74820 0.00000
					CHANNELS 3 Zrotation Xrotation Yrotation
					JOINT RightToeBase
					{
						OFFSET 0.00000 0.06325 14.43120
						CHANNELS 3 Zrotation Xrotation Yrotation
						End site
						{
							OFFSET 0.00000 0.00000 0.00000
						}
					}
				}
			}
		}
	}
	JOINT LeftUpLeg
	{
		OFFSET 9.98441 0.00000 0.00000
		CHANNELS 3 Zrotation Xrotation Yrotation
		JOINT LeftLeg
		{
			OFFSET 0.00000 -42.11800 0.00000
			CHANNELS 3 Zrotation Xrotation Yrotation
			JOINT LeftFoot
			{
				OFFSET 0.00000 -45.00070 0.00000
				CHANNELS 3 Zrotation Xrotation Yrotation
				JOINT LeftForeFoot
				{
					OFFSET 0.00000 -3.74824 0.00000
					CHANNELS 3 Zrotation Xrotation Yrotation
					JOINT LeftToeBase
					{
						OFFSET 0.00000 0.06325 14.43110
						CHANNELS 3 Zrotation Xrotation Yrotation
						End site
						{
							OFFSET 0.00000 0.00000 0.00000
						}
					}
				}
			}
		}
	}
}
MOTION
Frames: 4
Frame Time: 0.050000
0.04532607737098474 -0.004650207022809979 -0.012607914051164541 -0.025222120162017254 -0.008214628545170462 -0.029852448155783574 -2.8609177535068446 -0.1752016160397639 -0.9576856057904263 -0.2613133301429018 3.8351656616888214 0.27624029930570637 -0.7520094469476053 -2.0619333639881217 -0.04165745543754729 -1.0816225613675534 -1.2012947887792067 -0.5481669842422606 -0.2992329316915272 13.089743314741925 -0.19397845095985697 1.031462453966755 -0.46365605866988013 -0.22913331376788756 1.2092239820819546 -15.208995879294205 -0.06311513266362778 -0.5129431989959886 0.576967895547073 -13.16492860300582 63.18820627150828 -0.6188223975200402 23.679830901956233 34.10667833164252 7.7260823513404 98.25398866619666 27.540370510143948 -0.055771082183544374 -7.63698771927414 4.485441146013546 -0.10768679713069843 -1.5560876167408924 0.016476914469901602 -0.017610890972576322 -56.242126639703784 0.036647166761966665 -0.03572841856516101 -56.248738360074654 -38.76145700385295 -0.03153366248542948 0.004364002160730166 0.03448786509819936 -0.0354337886317241 -0.04857314781313648 0.007644179567719899 0.024590969945268583 0.03704787613929629 -36.66547083913539 -0.011205061648521895 0.005509068605119087 -0.024673665758943707 0.026536192061182243 0.044767887608973836 0.0069915845385337015 -0.025070665897927998 -0.004101304169695848 -19.798099674746435 0.03496199451843953 -0.0018241751593713175 -0.036148615536623754 -0.006824334005691125 0.0016114004538475336 -0.01507543755564107 0.0025247801691290093 -0.04532742009236566 24.009000843117608 -0.01274538364628377 0.04098458326785804 28.880202359283697 0.031484207244762606 -0.03993304595125701 28.914707202172153 0.044853124140443186 0.02103089058598924 4.628708174130423 1.2868854301729125 12.249560749994806 -67.99544099203729 25.16533224566417 -26.98883714957863 -24.59307652813906 3.458971950167627 -97.46808396676312 -28.479964863349437 2.4777959304504558 -2.744454075225185 -0.4316358848672675 0.07993086691171404 -8.135012381125069 0.03482719272087639 -0.00676054894941039 44.54813814484175 0.014874633565512536 -0.012094097072506674 44.576347166775605 12.434222630342926 0.044664036291523004 -0.03770795684188533 -0.007349231957729066 0.03130166457607518 -0.0025136091506742543 -0.031442666115405325 -0.00606310382618518 -0.035926157504622934 11.129025317526613 -0.046664789755702804 0.005189970425397884 -0.007819893988579444 -0.003295775544963158 0.04445170489502427 -0.0348536436568933 0.015611694575959298 0.048566594633848326 4.787024416852036 -0.014113169551603653 0.0015602360701109678 -0.028547080479228663 0.028863320710342578 -0.03234167560892049 0.04233272022620177 0.033709727234990924 -0.00457768089913771 -5.602019494946253 0.004823494994752595 -0.015055653570004988 -6.692236007976872 0.029263538800476302 0.019494941612338917 -6.715865442068191 -0.007228845857424707 -0.026306443585714975 -0.04421423608819301 0.046874521486567074 0.03755168172425529 8.055817790445369 3.4669491782050836 -19.24385378647131 0.007702467418408639 10.409708991808223 0.02234104991502473 -5.600926165625702 -15.655948600558446 3.1939456942084625 -0.019984178044577822 0.043473854053062956 -0.0022533857642117886 0.0048449849728452515 4.678364541958733 -0.022611063120878048 12.45832986540414 -8.234453000739775 6.854206277509451 -0.04662753778234421 46.37694234166572 0.03772547608029595 -4.329052886558876 -14.752297209103935 -3.7995610454753264 -0.004615393707830756 0.027330010424670006 0.02194160089139468 0.014905031797795173 -10.789768267339038 0.01130113554873221 
0.012905018850618772 -0.03621002500198857 0.0021975540910814857 -0.03409576093540401 -0.0007551411494826949 -0.034919486995919756 -2.559732737693849 -0.11467017637080157 -1.0310593283766905 -0.19412176037688242 3.7758578725549397 0.28063656300162926 -0.7052714677157156 -2.0206049811314264 -0.15938583753025165 -0.9912975347704391 -1.1306143506806865 -0.5470812153698779 -0.30927539956794037 13.048339496863557 -0.20758837091320947 1.0705656736751028 -0.48859894369820467 -0.004377076221892123 1.145805411065799 -15.199192883195442 -0.10305100834384015 -0.49453351365047843 0.6292495239214126 -13.36088784033923 64.20152527652178 -0.8138979362613336 22.686717962058676 32.20306610911702 7.792252099137323 98.68492393454423 26.834442570343125 -0.06202029937126198 -7.160130436942213 4.50146920588591 -0.15434837863755788 -1.5936203855364413 -0.0035963072865297105 0.0009691867313252717 -56.22034180596127 -0.011903843215437785 0.03564009436101524 -56.23828615067953 -38.77513615549993 0.01667180450468643 7.924771251340378e-06 -0.029057986720523246 0.016263719271533715 -0.03954536473179202 -0.017640152095827446 0.008374372884008984 0.021711095194825166 -36.66322392244705 0.018377098808058646 0.03040070892861532 0.03034589715684826 -0.02555057746643397 -0.03974263943647508 -0.01438716815853092 0.00151713981040717 0.0028749683386237366 -19.769041543271864 -0.007614580202509356 0.03609482039306536 -0.01457889671762328 0.027631020505172042 0.02832041509840152 -0.009660235181812053 0.03589428702047361 0.005339008357805292 24.067118832998656 -0.017981595808461426 0.007852394259223154 28.89876246015732 -0.00719071015354523 0.049819506252208975 28.867253277826304 0.036285331192596776 0.04051524472942119 4.791152939107109 1.324376046075807 12.305047813945565 -68.6708395718082 24.144025057310724 -27.074756675915978 -23.113498477742198 3.7946608295827104 -97.15983229415181 -27.707646394836868 3.347881324615126 -3.4980065935446665 -0.46392716590956273 0.09721081970062677 -8.127870595605577 -0.04809791339442751 0.014812596331031396 44.59550152858477 -0.032561251658684925 0.029995750574929925 44.58653004344123 12.42171052105448 0.038852936100313075 0.02902039614008996 -0.01613053673548668 0.002069580163384514 0.04214318542758197 0.02112629125845398 0.03848374455382992 0.04758880895478862 11.082176787101464 0.006017339345320351 0.009925290953689138 -0.03153149240123668 -0.04640543771753172 0.02186323142548512 0.03971190604072864 -0.010304125635965345 -0.008197804735587483 4.773028362299587 -0.013521299918768848 -0.024240351824426413 -0.01743379819466486 -0.038015067668910295 -0.004142779997379923 0.027029061244832193 -0.04817992699616867 -0.024387667197662697 -5.650107066067785 -0.01879843141811692 0.03207641593863796 -6.68815048216987 0.03167046422362681 0.0009932708012119944 -6.769408686873532 0.042805711330284095 0.03900521647600728 0.012441470825613367 -0.031255112182507004 -0.046750822824135 7.999514196248047 3.4890184178417885 -19.193340600973634 0.04364288264509301 10.345965326375842 0.007554087098681267 -5.6174726668851696 -15.665740163392599 3.1913258657966472 0.021240930764071516 -0.027213600979296527 0.04227935173081406 0.0018916651385770767 4.740573223573981 -0.001103964366275219 12.461470794082853 -8.244681132361553 6.868575448270431 0.0024241918995574104 46.422269460849286 -0.016263214654434262 -4.348872651890876 -14.712743766446389 -3.8522038790280164 0.00023859160569148099 -0.0011838544742281897 0.02428384332980399 0.03171528568990481 -10.755472976958384 -0.017985153272904085 
0.017416621881700383 -0.02247369582423445 0.03128468567086867 0.041285396760610577 -0.02277635552925475 0.008092874027089126 -2.245694379195141 -0.1648890192737742 -1.093792363748241 -0.22985091509098307 3.8270951298822355 0.2273881584550244 -0.6881556042644834 -2.049440949724334 -0.1257285982283975 -0.9747767458946732 -1.1512781147697793 -0.5532688275935359 -0.2670172057861353 13.153614128438534 -0.0649107287801067 1.095645420455472 -0.4197029748868598 0.29769072709390937 1.163895237081579 -15.119473686492713 -0.04628689471695731 -0.6436401190860883 0.5877150921148312 -13.489291138892655 65.31778391205364 -0.2928163525632508 21.672734953091418 31.02556616197204 8.04125699677293 99.17474308032419 25.99664873804459 -0.14324077164231946 -6.746305282575922 4.551123619639471 -0.11695608508900472 -1.553769863882915 0.012854499637448438 0.024327865935593246 -56.192605521776244 -0.028705126826357442 -0.008735069988088644 -56.23894744800916 -38.7246617913582 -0.014446414978054937 0.0032840824999143254 0.04244554524991453 0.02972897742352569 0.007500159722210544 0.02808795750974491 -0.013907497015119426 -0.0037477492156589806 -36.73311356609427 0.014545730701512058 -0.012712016257125064 -0.0034824419642077117 0.0035621191554694696 0.02793917160466372 -0.023846897490252313 0.03145213717788232 -0.022207009266041012 -19.765468526534818 -0.015401398345903101 0.035638669938038686 0.01840977134002483 -0.015244540199144889 0.011796295306673981 0.02984652560307825 -0.02853892789407431 0.013510545173597751 24.010866221348657 0.02180228202839182 -0.02057017688864269 28.88518895255161 -0.01950792852252522 -0.010840392455447764 28.8333837041955 0.013288654378992888 -0.01085793002671206 5.158214495590992 1.4790300621231816 12.444519318522246 -69.63367135937955 22.887764709837104 -27.37004286017036 -23.523474254473417 4.5138312355462835 -96.75389331895735 -26.882831093180048 4.235903824942792 -4.015770323157473 -0.43449055689387517 0.0850584520778272 -8.141984082995346 0.019013850814658947 -0.0048900832300197 44.55880090044649 0.03229823263892309 0.03754450386186937 44.55137577832156 12.505792379867298 0.037162725269195625 -0.010955721543003867 -0.014681795087968765 0.03793631218418039 0.015345672452586806 -0.009899982713701194 -0.0046795930006567794 -0.011069977598690732 11.061973559775737 -0.02830679217667371 0.030044999246444198 0.029717093725572942 -0.040883762257183334 0.044968375844346604 0.03856684085176035 0.0039855515426738255 -0.02209092260851045 4.788634625629325 -0.005255213004251049 0.00993753270553944 0.0032208294498513555 -0.038677409122677114 -0.026791532496709885 -0.02048896008031134 0.003539166548033668 -0.035378419602413134 -5.599169004303372 -0.02692298261202547 -0.01632562429020987 -6.720214253007402 0.002238295245217439 -0.020730544034991062 -6.6979862169527955 -0.00417650434141484 -0.03452291099736092 0.04248876820290557 0.020263807071973682 -0.04583457273137177 8.027127136320154 3.5375843231373354 -19.221835562471956 0.03411220357326325 10.38272592984347 0.043789228863334126 -5.645878811706903 -15.69504265825738 3.19686733360869 -0.018364001234966194 -0.043687124797532596 0.032721907402013896 -0.0029583107449057387 4.7410235146754705 0.005782487981758576 12.489069586624003 -8.255762799899262 6.904215145613473 0.010432800829407226 46.4014686841137 0.03553856327737433 -4.317451042480653 -14.751448925161693 -3.8246244607058877 -0.012951025163544374 0.0024677958334327374 -0.02820537123128327 0.02289820497999887 -10.785387323580688 0.03710424591020322 
0.03716574900008271 -0.009341407033075814 -0.0023486646546699973 -0.022326025864906833 0.04590021907520475 -0.009728414988469953 -1.9267612058570576 -0.2509249274969245 -1.106996631236479 -0.20335265830719063 3.797330930878469 0.25959415768251015 -0.639661519761917 -2.0825673422025783 -0.18459300573108153 -1.012035537876695 -1.2475203197741818 -0.584730880812579 -0.3652850960795276 13.193594239467787 -0.01930814230711543 1.0811934111443433 -0.3502513976431772 0.5070236787682344 1.121383762206098 -15.061071885837437 -0.05063243584992569 -0.7955462287948771 0.7211739682832611 -13.588138522868105 66.23758445118264 0.4206612963438085 21.02300175152131 30.34081277989942 8.221305470344467 99.57918495244435 25.260398975713628 -0.13030361999537993 -6.372607087369031 4.506449730466898 -0.1356507479329114 -1.5866878486603657 0.003316485265806189 0.008037584745699673 -56.18703240936774 -0.019393006222349497 0.0028884963428267617 -56.25001223977863 -38.798202189824664 0.012327991391318441 -0.021982680758144083 -0.04747537753678203 -0.0488510331173767 0.03743882573234998 -0.02592006065070889 0.012905093959388231 -0.014613715001330956 -36.70885098792406 0.04424243891724569 -0.02924506396656657 0.02633112721805019 -0.04139902677655756 0.03356139733881579 -0.03620684918964057 -0.010387214494011593 0.0366445018810139 -19.727452374324294 -0.03871710187725089 0.03273765864613555 -0.01588625626878567 -0.012421976145545225 -0.02459495225993653 0.013341065950145028 0.010031199118227065 0.01633551868293513 24.03253015189754 -0.043376052817607924 -0.03243672542080471 28.87839659897942 -0.01374853580130526 0.011541452062002104 28.83627730711918 0.0382624892746669 -0.02750061991179473 5.555511248346335 1.5212849935251864 12.502037224072277 -70.33606820874131 21.718452714320197 -27.903087733363098 -24.66259217993649 5.312422962278832 -96.4291865105093 -26.188622588684364 4.668933675166271 -4.279050189178517 -0.5047796433360701 0.036315925968196515 -8.161025712961601 0.027283009427241933 -0.023045556517985292 44.57727175006453 0.04429222751773228 0.04282924145207605 44.543589469957695 12.470814331927615 -0.018196666734565194 -0.001972248216996833 -0.011185582665570463 -0.02223831985400148 0.014062742984576536 -0.03702835214451491 0.006438132760305648 0.0066207819596799675 11.093061615985349 0.015494452998588771 -0.0010283653075099624 -0.03989032480254241 -0.022907562863909714 0.026907417352108776 -0.024406546050473363 -0.026460090170980513 -0.040667508925663814 4.813137389760637 0.02618982799637974 0.013925238741803425 -0.038317242393569595 0.03074915086385382 -0.02808671998899179 0.015067176479664535 0.040480953137645284 0.030078516186575786 -5.61736977152492 -0.03384188193417341 -0.009534004134276117 -6.7348666033455284 -0.02063767610213093 -0.007184672098554792 -6.7291584741262955 0.015420826188039333 0.020121370824316746 0.030329271445205454 -0.038274035376865904 -0.008113356777708889 8.025264951324251 3.541558427885337 -19.176218808565803 -0.014157365873227893 10.40554843392355 0.001658545193151303 -5.609686693366913 -15.705206708762407 3.1885934121026573 0.009243069179478543 -0.02160366437181796 0.02110476559696102 -0.01193024760620618 4.718166242373614 0.004644298321918358 12.417607034128823 -8.272174719315178 6.896031560345503 0.01581661703040363 46.35190507959325 0.050607269255174066 -4.293655151431785 -14.763149528996765 -3.8025790168676057 0.025506021325733087 -0.0034470129123327087 0.03675752363287483 0.01804562880856641 -10.72511839819751 0.026035230272680666 
